<?xml version="1.0" standalone="no"?>
<!DOCTYPE svg PUBLIC "-//W3C//DTD SVG 20010904//EN"
 "http://www.w3.org/TR/2001/REC-SVG-20010904/DTD/svg10.dtd">
<svg version="1.0" xmlns="http://www.w3.org/2000/svg"
 width="264.000000pt" height="172.000000pt" viewBox="0 0 264.000000 172.000000"
 preserveAspectRatio="xMidYMid meet">
<metadata>
Created by potrace 1.16, written by Peter Selinger 2001-2019
</metadata>
<g transform="translate(0.000000,172.000000) scale(0.100000,-0.100000)"
fill="#000000" stroke="none">
<path d="M1 1548 c1 -167 1 -171 16 -130 15 42 33 48 33 11 0 -11 4 -17 10
-14 6 3 10 -1 10 -9 0 -9 -4 -16 -10 -16 -5 0 -10 -9 -10 -20 0 -20 -32 -44
-44 -33 -3 3 -6 -5 -6 -18 1 -21 2 -22 11 -6 5 9 14 17 19 17 21 0 6 -194 -21
-280 -6 -19 -9 -53 -7 -75 l4 -40 12 29 c15 34 27 28 18 -9 -4 -14 -13 -25
-21 -25 -13 0 -15 -46 -15 -334 0 -184 4 -337 9 -340 5 -3 12 -26 16 -52 5
-33 2 -52 -9 -69 -10 -15 -16 -46 -16 -80 l0 -55 195 0 195 0 11 27 c8 22 12
25 20 13 8 -12 12 -12 16 -2 4 10 8 10 19 1 11 -9 18 -8 32 5 10 9 22 13 25
10 4 -4 13 -1 22 6 12 10 15 10 15 0 0 -9 3 -10 13 -1 17 14 27 4 27 -26 0
-13 5 -23 10 -23 15 0 26 33 13 37 -7 3 -7 16 1 43 11 43 33 55 32 18 -1 -20
3 -23 30 -20 19 2 36 -3 44 -12 7 -9 17 -16 23 -16 6 0 19 -8 29 -17 22 -19
83 -43 113 -43 12 0 26 5 33 12 9 9 12 9 12 0 0 -8 17 -12 44 -12 36 0 46 4
51 20 7 23 -1 40 -20 40 -22 0 -27 18 -12 47 9 16 11 36 7 48 -4 11 -2 28 4
37 5 9 7 20 4 24 -13 12 -38 -5 -38 -26 0 -11 -4 -20 -9 -20 -5 0 -7 -9 -4
-19 3 -12 0 -19 -9 -18 -67 3 -90 -19 -48 -45 11 -7 20 -21 20 -31 0 -14 -4
-16 -19 -7 -11 5 -37 9 -59 8 -46 -1 -116 36 -108 58 3 8 4 14 3 14 -1 0 -16
-4 -34 -9 -29 -8 -32 -7 -31 12 2 29 14 43 49 61 18 9 29 11 29 4 0 -6 8 -4
18 5 10 10 22 17 27 17 4 0 14 8 21 17 13 17 13 17 14 1 0 -15 4 -16 25 -6 14
6 25 17 25 25 0 16 -12 17 -27 2 -7 -7 -12 -6 -16 6 -4 9 3 24 18 37 14 12 25
28 25 36 0 9 -10 5 -31 -12 -17 -14 -34 -26 -39 -26 -4 0 -6 -8 -3 -19 6 -22
0 -26 -47 -36 -31 -7 -33 -6 -21 9 9 10 10 16 2 16 -6 0 -12 -4 -12 -10 -1 -5
-2 -15 -3 -21 -2 -15 -37 -39 -58 -39 -11 0 -15 5 -12 15 4 8 10 13 14 10 4
-2 18 10 31 27 13 17 30 37 36 44 10 10 7 27 -17 84 -17 39 -28 75 -25 80 3 4
-1 15 -9 23 -25 24 -41 141 -32 222 2 17 4 40 5 52 0 12 8 29 17 37 11 11 12
21 6 33 -7 11 -6 29 3 52 6 20 15 67 19 104 4 38 11 76 16 85 5 9 11 25 14 35
3 9 14 17 25 17 11 0 32 11 47 25 15 14 33 25 40 25 8 0 14 5 14 10 0 6 6 10
13 10 6 0 32 11 57 24 25 13 72 27 105 30 33 4 68 10 79 13 13 4 16 2 11 -8
-6 -9 -4 -11 8 -6 12 4 14 2 10 -10 -5 -13 -2 -15 13 -9 32 14 84 17 84 6 0
-5 -4 -10 -10 -10 -5 0 -10 -5 -10 -10 0 -7 6 -7 18 -1 28 15 61 9 68 -11 3
-10 8 -17 12 -17 23 4 42 -2 37 -11 -3 -5 1 -10 10 -10 8 0 23 -9 33 -21 9
-11 28 -25 41 -30 13 -5 21 -15 18 -23 -3 -7 8 -28 24 -45 16 -18 29 -36 29
-40 0 -4 8 -23 17 -42 23 -44 19 -184 -7 -244 -35 -83 -54 -235 -29 -235 6 0
8 8 4 19 -3 12 0 21 9 24 12 5 14 0 9 -24 -4 -21 0 -35 12 -49 15 -17 16 -25
7 -45 -7 -15 -8 -26 -1 -30 5 -4 7 -11 3 -16 -3 -6 3 -17 15 -25 12 -8 21 -20
21 -26 0 -6 16 -32 35 -58 19 -26 35 -54 35 -63 0 -8 7 -18 16 -21 8 -3 12
-10 9 -16 -3 -5 -1 -10 5 -10 6 0 8 -10 4 -24 -3 -13 -1 -27 5 -30 6 -4 11 -3
11 3 0 6 7 8 15 5 21 -8 29 -48 15 -73 -11 -21 -10 -21 144 -21 146 0 155 1
161 20 8 25 44 45 57 32 5 -5 10 -19 11 -31 1 -21 2 -21 274 -21 l273 0 0 860
0 860 -810 0 c-640 0 -811 -3 -815 -12 -2 -7 -6 -29 -10 -48 -20 -127 -29
-170 -37 -170 -4 0 -8 3 -8 8 1 18 29 179 35 200 7 21 5 22 -49 22 -50 0 -56
-2 -56 -20 0 -11 -7 -23 -15 -26 -8 -4 -15 -17 -15 -29 0 -13 -5 -27 -10 -30
-6 -4 -10 11 -10 39 0 32 5 48 18 55 12 7 -60 10 -239 11 l-255 0 -21 -37
c-16 -30 -19 -44 -11 -63 13 -34 4 -118 -14 -137 -14 -13 -16 -10 -23 32 -4
30 -3 51 4 58 6 6 11 36 11 67 0 31 5 61 12 68 10 10 -3 12 -67 10 l-80 -3 -3
-35 c-4 -46 -21 -80 -42 -80 -12 0 -21 -16 -30 -55 -7 -30 -17 -55 -22 -55
-14 0 -4 115 14 178 l15 52 -53 0 -54 0 1 -172z"/>
<path d="M1079 1003 c-10 -2 -24 -27 -34 -59 -18 -59 -30 -68 -82 -68 -18 0
-33 -4 -33 -8 0 -4 -8 -8 -17 -8 -13 -1 -8 -9 19 -33 27 -24 41 -48 56 -97 18
-59 22 -65 48 -68 22 -2 41 8 81 43 29 26 65 48 79 51 15 3 35 9 45 14 12 7
19 6 22 -3 4 -9 6 -9 6 1 1 18 -39 54 -54 48 -7 -2 -16 2 -19 10 -3 8 -19 14
-36 14 -34 0 -34 0 -31 89 2 44 -1 66 -11 72 -7 5 -15 8 -18 8 -3 -1 -12 -3
-21 -6z"/>
<path d="M1060 245 c0 -8 -6 -14 -12 -12 -8 1 -14 -12 -16 -35 -2 -21 1 -38 6
-38 17 0 54 -79 47 -103 -4 -13 -3 -17 2 -10 10 15 26 5 42 -24 9 -17 21 -23
47 -23 l35 0 -41 42 c-48 50 -52 73 -12 65 41 -8 39 23 -4 52 -33 23 -44 41
-25 41 6 0 16 -8 23 -19 15 -21 87 -65 89 -53 1 4 1 11 0 16 -3 14 28 -14 40
-35 8 -17 6 -18 -23 -12 -30 6 -32 5 -20 -10 19 -22 8 -35 -24 -29 l-27 5 23
-30 c18 -25 30 -31 61 -31 43 -1 48 7 21 31 -14 13 -21 14 -30 5 -9 -9 -12 -9
-12 0 0 16 41 52 60 52 27 0 31 12 10 27 -11 8 -18 19 -15 24 4 5 0 9 -7 9 -7
0 -19 9 -26 20 -6 11 -18 17 -25 14 -7 -2 -31 0 -52 5 -22 5 -32 9 -22 10 9 1
17 4 17 9 0 11 -42 36 -73 43 -26 6 -28 5 -23 -17 4 -14 2 -24 -4 -24 -10 0
-14 14 -11 38 1 6 -3 12 -9 12 -5 0 -10 -7 -10 -15z"/>
</g>
</svg>
