<?xml version="1.0" standalone="no"?>
<!DOCTYPE svg PUBLIC "-//W3C//DTD SVG 20010904//EN"
 "http://www.w3.org/TR/2001/REC-SVG-20010904/DTD/svg10.dtd">
<svg version="1.0" xmlns="http://www.w3.org/2000/svg"
 width="296.000000pt" height="287.000000pt" viewBox="0 0 296.000000 287.000000"
 preserveAspectRatio="xMidYMid meet">
<metadata>
Created by potrace 1.16, written by Peter Selinger 2001-2019
</metadata>
<g transform="translate(0.000000,287.000000) scale(0.100000,-0.100000)"
fill="#000000" stroke="none">
<path d="M1550 2843 c-219 -33 -345 -69 -469 -133 -82 -43 -186 -127 -196
-160 -5 -15 23 -58 110 -172 64 -84 121 -155 126 -156 5 -2 20 3 33 11 46 30
150 67 234 83 133 25 245 3 311 -59 45 -43 61 -84 61 -159 0 -96 -39 -170
-186 -355 -92 -115 -153 -209 -192 -295 -25 -55 -39 -73 -77 -97 -119 -75
-302 -65 -383 22 -13 14 -41 73 -63 132 -46 130 -88 198 -131 216 -31 13 -33
12 -62 -25 -17 -21 -50 -60 -73 -87 -53 -61 -61 -88 -37 -128 10 -17 21 -31
24 -31 3 0 23 -15 44 -34 l40 -33 -22 -35 c-27 -43 -27 -65 -3 -102 15 -22 17
-34 10 -50 -12 -25 -1 -56 33 -99 20 -25 21 -31 10 -72 -17 -66 -15 -113 9
-162 37 -76 121 -100 291 -82 172 17 568 126 754 206 l81 35 6 102 c10 202 68
314 283 539 153 160 226 274 259 402 47 184 -19 423 -158 571 -102 110 -218
171 -377 200 -69 12 -230 17 -290 7z"/>
<path d="M1495 701 c-50 -22 -108 -86 -126 -137 -21 -61 -16 -161 11 -214 50
-100 108 -135 225 -135 67 0 87 4 125 25 175 99 166 377 -15 461 -54 25 -166
25 -220 0z"/>
</g>
</svg>
